<svg xmlns="http://www.w3.org/2000/svg" viewBox="0 0 32 32" width="32" height="32">
  <!-- Background circle with gradient -->
  <defs>
    <linearGradient id="bgGradient" x1="0%" y1="0%" x2="100%" y2="100%">
      <stop offset="0%" style="stop-color:#667eea;stop-opacity:1" />
      <stop offset="100%" style="stop-color:#764ba2;stop-opacity:1" />
    </linearGradient>
    <linearGradient id="carGradient" x1="0%" y1="0%" x2="100%" y2="100%">
      <stop offset="0%" style="stop-color:#4CAF50;stop-opacity:1" />
      <stop offset="100%" style="stop-color:#2E7D32;stop-opacity:1" />
    </linearGradient>
  </defs>
  
  <!-- Background -->
  <circle cx="16" cy="16" r="16" fill="url(#bgGradient)"/>
  
  <!-- Globe outline -->
  <circle cx="16" cy="16" r="11" fill="none" stroke="white" stroke-width="1.5" opacity="0.8"/>
  
  <!-- Globe grid lines -->
  <path d="M 5 16 Q 16 8 27 16 Q 16 24 5 16" fill="none" stroke="white" stroke-width="0.8" opacity="0.6"/>
  <path d="M 5 16 Q 16 24 27 16 Q 16 8 5 16" fill="none" stroke="white" stroke-width="0.8" opacity="0.6"/>
  <line x1="16" y1="5" x2="16" y2="27" stroke="white" stroke-width="0.8" opacity="0.6"/>
  
  <!-- Electric car silhouette -->
  <g transform="translate(10, 18) scale(0.8)">
    <!-- Car body -->
    <path d="M 2 4 L 14 4 Q 15 4 15 3 Q 15 2 14 2 L 12 2 Q 11 1 10 1 L 6 1 Q 5 1 4 2 L 2 2 Q 1 2 1 3 Q 1 4 2 4 Z" 
          fill="url(#carGradient)" stroke="white" stroke-width="0.3"/>
    
    <!-- Wheels -->
    <circle cx="4" cy="4.5" r="1.2" fill="#333" stroke="white" stroke-width="0.3"/>
    <circle cx="12" cy="4.5" r="1.2" fill="#333" stroke="white" stroke-width="0.3"/>
    
    <!-- Lightning bolt (charging symbol) -->
    <path d="M 7 -1 L 5.5 1 L 6.5 1 L 6 3 L 7.5 1 L 6.5 1 Z" 
          fill="#FFD700" stroke="white" stroke-width="0.2"/>
  </g>
  
  <!-- Small charging station icon -->
  <g transform="translate(20, 8) scale(0.6)">
    <!-- Charging post -->
    <rect x="0" y="2" width="2" height="6" fill="white" opacity="0.9"/>
    <!-- Charging cable -->
    <path d="M 2 4 Q 4 3 6 5" fill="none" stroke="white" stroke-width="0.8" opacity="0.9"/>
    <!-- Plug -->
    <circle cx="6" cy="5" r="0.8" fill="white" opacity="0.9"/>
  </g>
</svg>